<svg width="17" height="19" viewBox="0 0 17 19" fill="none" xmlns="http://www.w3.org/2000/svg">
<path d="M13.7603 18.125C12.7395 19.1146 11.6249 18.9583 10.552 18.4896C9.41655 18.0104 8.37489 17.9896 7.17697 18.4896C5.67697 19.1354 4.8853 18.9479 3.98947 18.125C-1.09386 12.8854 -0.343864 4.90625 5.42697 4.61458C6.83322 4.6875 7.81239 5.38542 8.6353 5.44792C9.86447 5.19792 11.0416 4.47917 12.3541 4.57292C13.927 4.69792 15.1145 5.32292 15.8957 6.44792C12.6457 8.39583 13.4166 12.6771 16.3957 13.875C15.802 15.4375 15.0311 16.9896 13.7499 18.1354L13.7603 18.125ZM8.53114 4.55208C8.37489 2.22917 10.2603 0.3125 12.427 0.125C12.7291 2.8125 9.98947 4.8125 8.53114 4.55208Z" fill="#2B2B2B"/>
</svg>
