<svg width="25" height="29" viewBox="0 0 25 29" fill="none" xmlns="http://www.w3.org/2000/svg">
<path d="M20.1784 27.1011C18.6848 28.549 17.054 28.3204 15.4842 27.6345C13.8229 26.9334 12.2989 26.903 10.5462 27.6345C8.35148 28.5795 7.19318 28.3051 5.88246 27.1011C-1.55508 19.4349 -0.457734 7.76045 7.9857 7.3337C10.0432 7.44039 11.4759 8.46152 12.6799 8.55297C14.4783 8.18719 16.2005 7.13557 18.1209 7.27274C20.4222 7.45563 22.1597 8.37008 23.3028 10.0161C18.5476 12.8661 19.6754 19.1301 24.0343 20.8828C23.1656 23.169 22.0378 25.4398 20.1631 27.1163L20.1784 27.1011ZM12.5275 7.24226C12.2989 3.84355 15.0575 1.03923 18.2276 0.764893C18.6695 4.69703 14.6612 7.62328 12.5275 7.24226Z" fill="#BC172F"/>
</svg>
