<svg width="20" height="20" viewBox="0 0 20 20" fill="none" xmlns="http://www.w3.org/2000/svg">
<path d="M0 10C0 4.48 4.48 0 10 0C15.52 0 20 4.48 20 10C20 15.52 15.52 20 10 20C4.48 20 0 15.52 0 10ZM10 12.79V11H13C13.55 11 14 10.55 14 10C14 9.45 13.55 9 13 9H10V7.21C10 6.76 9.46 6.54 9.15 6.86L6.36 9.65C6.16 9.85 6.16 10.16 6.36 10.36L9.15 13.15C9.2205 13.2191 9.30987 13.2658 9.40686 13.2842C9.50384 13.3026 9.60411 13.2918 9.69501 13.2533C9.7859 13.2148 9.86337 13.1503 9.91765 13.0678C9.97193 12.9854 10.0006 12.8887 10 12.79Z" fill="white"/>
</svg>
