<svg width="19" height="15" viewBox="0 0 19 15" fill="none" xmlns="http://www.w3.org/2000/svg">
<path d="M15.8785 2.04992C14.7502 1.52397 13.5287 1.14223 12.2562 0.92167C12.2451 0.921313 12.234 0.923407 12.2237 0.927804C12.2134 0.932201 12.2043 0.938794 12.1968 0.947119C12.0441 1.22706 11.866 1.59183 11.7472 1.87178C10.3976 1.66818 9.025 1.66818 7.67534 1.87178C7.55658 1.58335 7.37844 1.22706 7.21726 0.947119C7.20877 0.930153 7.18332 0.92167 7.15788 0.92167C5.88541 1.14223 4.67233 1.52397 3.5356 2.04992C3.52712 2.04992 3.51863 2.0584 3.51015 2.06689C1.20275 5.5195 0.566519 8.8788 0.880393 12.2042C0.880393 12.2211 0.888876 12.2381 0.905843 12.2466C2.4328 13.3664 3.90037 14.045 5.35098 14.4946C5.37643 14.5031 5.40188 14.4946 5.41036 14.4776C5.74968 14.0111 6.05507 13.519 6.31805 13.0016C6.33502 12.9676 6.31805 12.9337 6.28412 12.9252C5.80058 12.7386 5.3425 12.518 4.89289 12.2636C4.85896 12.2466 4.85896 12.1957 4.88441 12.1702C4.97772 12.1024 5.07104 12.026 5.16435 11.9582C5.18132 11.9412 5.20677 11.9412 5.22373 11.9497C8.14191 13.2815 11.2891 13.2815 14.1734 11.9497C14.1904 11.9412 14.2158 11.9412 14.2328 11.9582C14.3261 12.0345 14.4194 12.1024 14.5127 12.1787C14.5466 12.2042 14.5466 12.2551 14.5042 12.272C14.0631 12.535 13.5965 12.7471 13.113 12.9337C13.0791 12.9422 13.0706 12.9846 13.0791 13.0101C13.3505 13.5275 13.6559 14.0196 13.9868 14.4861C14.0122 14.4946 14.0377 14.5031 14.0631 14.4946C15.5222 14.045 16.9898 13.3664 18.5167 12.2466C18.5337 12.2381 18.5422 12.2211 18.5422 12.2042C18.9154 8.36133 17.9229 5.02748 15.9124 2.06689C15.9039 2.0584 15.8955 2.04992 15.8785 2.04992ZM6.75917 10.1767C5.88541 10.1767 5.15587 9.37082 5.15587 8.3783C5.15587 7.38578 5.86845 6.57989 6.75917 6.57989C7.65838 6.57989 8.37096 7.39426 8.36247 8.3783C8.36247 9.37082 7.64989 10.1767 6.75917 10.1767ZM12.6719 10.1767C11.7981 10.1767 11.0686 9.37082 11.0686 8.3783C11.0686 7.38578 11.7812 6.57989 12.6719 6.57989C13.5711 6.57989 14.2837 7.39426 14.2752 8.3783C14.2752 9.37082 13.5711 10.1767 12.6719 10.1767Z" fill="white"/>
</svg>
