<svg width="139" height="41" viewBox="0 0 139 41" fill="none" xmlns="http://www.w3.org/2000/svg">
<path d="M40.4463 15.6874C40.4463 12.7788 40.4219 11.0049 40.4023 9.70432H44.5676C44.631 10.2973 44.6945 12.1151 44.6945 14.077C45.812 11.1855 48.3839 9.27974 52.0465 9.19678V13.3693C47.5469 13.4547 44.6945 15.5874 44.6945 21.2484V31.7408H40.4463V15.6874Z" fill="white"/>
<path d="M57.1554 21.5266C57.1774 25.6747 59.2637 28.7614 62.8652 28.7614C66.1667 28.7614 67.2159 27.1168 67.8967 25.56H72.1693C71.3177 28.3564 68.9459 32.2435 62.7408 32.2435C55.7499 32.2435 52.8633 26.6532 52.8633 20.9605C52.8633 14.3405 56.2111 9.17725 62.9799 9.17725C70.1733 9.17725 72.55 14.8334 72.55 19.6867C72.562 20.2983 72.5409 20.91 72.4865 21.5192L57.1554 21.5266ZM68.2554 18.6399C68.2115 15.2238 66.5473 12.4567 62.9336 12.4567C59.2441 12.4567 57.641 15.0213 57.2847 18.6399H68.2554Z" fill="white"/>
<path d="M76.1328 0H80.3786V4.88019H76.1328V0ZM76.1328 9.70426H80.3786V31.731H76.1328V9.70426Z" fill="white"/>
<path d="M87.5422 25.3673C88.14 27.6488 89.8554 28.9811 92.703 28.9811C95.7458 28.9811 96.9317 27.7 96.9317 25.826C96.9317 23.891 95.9312 23.015 91.9319 22.0414C85.4657 20.4651 84.1822 18.4838 84.1822 15.4703C84.1822 12.3274 86.4734 9.18457 92.3248 9.18457C98.1761 9.18457 100.509 12.5446 100.775 15.5947H96.6876C96.3948 14.2892 95.4212 12.3933 92.1369 12.3933C89.2551 12.3933 88.3913 13.7622 88.3913 15.1189C88.3913 16.6586 89.2527 17.4174 93.2007 18.3569C100.011 19.9649 101.29 22.261 101.29 25.5161C101.29 29.3349 98.2835 32.2508 92.5614 32.2508C86.6637 32.2508 83.8747 29.3007 83.3281 25.3673H87.5422Z" fill="white"/>
<path d="M102.867 9.70457H106.596V3.30664H110.844V9.70457H115.6V13.0939H110.844V25.6018C110.844 27.6515 111.364 28.6641 113.323 28.6641C113.932 28.6748 114.541 28.6208 115.138 28.5031V31.6239C114.148 31.9875 112.776 32.0339 111.691 32.0339C108.094 32.0339 106.596 30.1574 106.596 26.4607V13.0939H102.867V9.70457Z" fill="white"/>
<path d="M123.275 9.70459C126.584 19.6797 128.548 25.7092 129.085 27.9077H129.129C129.798 25.4676 131.313 20.4459 134.724 9.70459H138.999L131.191 32.6708C128.963 39.0955 127.289 40.7841 122.626 40.7841C121.803 40.7803 120.981 40.7298 120.164 40.6328V37.0092C120.752 37.0827 121.344 37.1202 121.936 37.1215C124.62 37.1215 125.691 35.9795 126.899 32.5463L118.695 9.70459H123.275Z" fill="white"/>
<path d="M16.8555 12.1177H20.4961C20.5522 12.7082 20.4961 14.8555 20.4961 16.9076C21.5844 14.0624 24.0903 12.2348 27.5724 12.1177V15.7388C23.2607 15.8657 20.4961 18.1179 20.4961 23.4348V31.6677H16.8555C16.8555 31.6677 16.8701 13.2377 16.8555 12.1177Z" fill="white"/>
<path d="M15.7267 12.1177H12.0958C12.0397 12.7082 12.0958 14.8555 12.0958 16.9076C10.9978 14.0624 8.48935 12.225 5.01953 12.1177V15.7388C9.33118 15.8657 12.0958 18.1179 12.0958 23.4348V31.6677H15.7267C15.7267 31.6677 15.712 13.2377 15.7267 12.1177Z" fill="white"/>
<path d="M32.5802 9.51172V13.4159C31.4358 13.3988 11.0781 13.4159 11.0781 13.4159V9.51172H32.5802Z" fill="white"/>
<path d="M21.5046 9.51172V13.4159C20.3577 13.3988 0 13.4159 0 13.4159V9.51172H21.5046Z" fill="white"/>
</svg>
