<svg width="25" height="25" viewBox="0 0 25 25" fill="none" xmlns="http://www.w3.org/2000/svg">
<g clip-path="url(#clip0_244_2294)">
<path d="M24.4158 12.7343C24.4158 11.71 24.3327 10.9626 24.1528 10.1875H12.457V14.8104H19.3222C19.1838 15.9593 18.4364 17.6894 16.7754 18.852L16.7522 19.0068L20.4502 21.8716L20.7064 21.8971C23.0593 19.724 24.4158 16.5267 24.4158 12.7343Z" fill="#4285F4"/>
<path d="M12.457 24.9142C15.8203 24.9142 18.6439 23.8069 20.7063 21.8969L16.7754 18.8517C15.7235 19.5853 14.3116 20.0974 12.457 20.0974C9.16277 20.0974 6.36688 17.9244 5.37022 14.9209L5.22413 14.9333L1.3789 17.9092L1.32861 18.049C3.37709 22.1182 7.58482 24.9142 12.457 24.9142Z" fill="#34A853"/>
<path d="M5.37032 14.9209C5.10735 14.1458 4.95515 13.3153 4.95515 12.4572C4.95515 11.599 5.10735 10.7685 5.35649 9.99343L5.34952 9.82835L1.45611 6.80469L1.32872 6.86528C0.484447 8.55392 0 10.4502 0 12.4572C0 14.4641 0.484447 16.3603 1.32872 18.049L5.37032 14.9209Z" fill="#FBBC05"/>
<path d="M12.457 4.8167C14.7961 4.8167 16.3739 5.8271 17.2737 6.67147L20.7893 3.23884C18.6301 1.23187 15.8203 0 12.457 0C7.58482 0 3.37709 2.7959 1.32861 6.86517L5.35638 9.99332C6.36688 6.98979 9.16277 4.8167 12.457 4.8167Z" fill="#EB4335"/>
</g>
<defs>
<clipPath id="clip0_244_2294">
<rect width="24.4275" height="25" fill="white"/>
</clipPath>
</defs>
</svg>
