<svg width="27" height="19" viewBox="0 0 27 19" fill="none" xmlns="http://www.w3.org/2000/svg">
<path d="M25.575 8H1.425C0.637994 8 0 8.63799 0 9.425V9.575C0 10.362 0.637994 11 1.425 11H25.575C26.362 11 27 10.362 27 9.575V9.425C27 8.63799 26.362 8 25.575 8Z" fill="#BC172F"/>
<path d="M25.575 15.5H1.425C0.637994 15.5 0 16.138 0 16.925V17.075C0 17.862 0.637994 18.5 1.425 18.5H25.575C26.362 18.5 27 17.862 27 17.075V16.925C27 16.138 26.362 15.5 25.575 15.5Z" fill="#BC172F"/>
<path d="M25.575 0.5H1.425C0.637994 0.5 0 1.13799 0 1.925V2.075C0 2.86201 0.637994 3.5 1.425 3.5H25.575C26.362 3.5 27 2.86201 27 2.075V1.925C27 1.13799 26.362 0.5 25.575 0.5Z" fill="#BC172F"/>
</svg>
