<svg width="17" height="17" viewBox="0 0 17 17" fill="none" xmlns="http://www.w3.org/2000/svg">
<path fill-rule="evenodd" clip-rule="evenodd" d="M4.11755 0.877702C7.06622 0.550857 10.042 0.550857 12.9906 0.877702C14.6015 1.05754 15.9002 2.32573 16.0894 3.94256C16.4391 6.93248 16.4391 9.95296 16.0894 12.9429C15.9002 14.5597 14.6015 15.8279 12.9915 16.0086C10.0425 16.3355 7.06649 16.3355 4.11755 16.0086C2.50666 15.8279 1.20793 14.5597 1.01876 12.9437C0.669039 9.95353 0.669039 6.93276 1.01876 3.94256C1.20793 2.32573 2.50666 1.05754 4.11755 0.877702ZM12.7955 3.353C12.5705 3.353 12.3548 3.44237 12.1957 3.60146C12.0366 3.76054 11.9472 3.97631 11.9472 4.20129C11.9472 4.42627 12.0366 4.64203 12.1957 4.80112C12.3548 4.9602 12.5705 5.04957 12.7955 5.04957C13.0205 5.04957 13.2363 4.9602 13.3954 4.80112C13.5544 4.64203 13.6438 4.42627 13.6438 4.20129C13.6438 3.97631 13.5544 3.76054 13.3954 3.60146C13.2363 3.44237 13.0205 3.353 12.7955 3.353ZM4.52473 8.44272C4.52473 7.37407 4.94925 6.34918 5.7049 5.59353C6.46055 4.83788 7.48544 4.41336 8.55409 4.41336C9.62274 4.41336 10.6476 4.83788 11.4033 5.59353C12.1589 6.34918 12.5834 7.37407 12.5834 8.44272C12.5834 9.51137 12.1589 10.5363 11.4033 11.2919C10.6476 12.0476 9.62274 12.4721 8.55409 12.4721C7.48544 12.4721 6.46055 12.0476 5.7049 11.2919C4.94925 10.5363 4.52473 9.51137 4.52473 8.44272Z" fill="white"/>
</svg>
