<svg width="25" height="25" viewBox="0 0 25 25" fill="none" xmlns="http://www.w3.org/2000/svg">
<path d="M12.4993 8.33329C10.1973 8.33329 8.33268 10.1979 8.33268 12.5C8.33268 14.802 10.1973 16.6666 12.4993 16.6666C14.8014 16.6666 16.666 14.802 16.666 12.5C16.666 10.1979 14.8014 8.33329 12.4993 8.33329ZM21.8118 11.4583C21.5759 9.34592 20.6287 7.37656 19.1257 5.8736C17.6227 4.37064 15.6534 3.42341 13.541 3.18746V1.04163H11.4577V3.18746C9.34531 3.42341 7.37595 4.37064 5.87299 5.8736C4.37003 7.37656 3.4228 9.34592 3.18685 11.4583H1.04102V13.5416H3.18685C3.4228 15.654 4.37003 17.6234 5.87299 19.1263C7.37595 20.6293 9.34531 21.5765 11.4577 21.8125V23.9583H13.541V21.8125C15.6534 21.5765 17.6227 20.6293 19.1257 19.1263C20.6287 17.6234 21.5759 15.654 21.8118 13.5416H23.9577V11.4583H21.8118ZM12.4993 19.7916C8.4681 19.7916 5.20768 16.5312 5.20768 12.5C5.20768 8.46871 8.4681 5.20829 12.4993 5.20829C16.5306 5.20829 19.791 8.46871 19.791 12.5C19.791 16.5312 16.5306 19.7916 12.4993 19.7916Z" fill="#BC172F"/>
</svg>
