<svg width="120" height="36" viewBox="0 0 120 36" fill="none" xmlns="http://www.w3.org/2000/svg">
<path d="M34.7135 13.9643C34.7135 11.4679 34.6925 9.94533 34.6758 8.82906H38.2508C38.3052 9.33798 38.3597 10.8982 38.3597 12.5821C39.3189 10.1003 41.5262 8.46465 44.6698 8.39345V11.9747C40.8079 12.048 38.3597 13.8784 38.3597 18.7372V27.7427H34.7135V13.9643Z" fill="#BC172F"/>
<path d="M49.055 18.976C49.0738 22.5363 50.8645 25.1856 53.9556 25.1856C56.7892 25.1856 57.6898 23.774 58.2741 22.4378H61.9412C61.2103 24.8379 59.1746 28.1741 53.8488 28.1741C47.8487 28.1741 45.3711 23.3761 45.3711 18.4901C45.3711 12.8082 48.2445 8.37669 54.0541 8.37669C60.2281 8.37669 62.2679 13.2313 62.2679 17.3969C62.2783 17.9217 62.2601 18.4468 62.2135 18.9697L49.055 18.976ZM58.582 16.4984C58.5443 13.5664 57.1159 11.1914 54.0143 11.1914C50.8477 11.1914 49.4717 13.3925 49.166 16.4984H58.582Z" fill="#BC172F"/>
<path d="M65.3438 0.500031H68.9878V4.68864H65.3438V0.500031ZM65.3438 8.82908H68.9878V27.7344H65.3438V8.82908Z" fill="#BC172F"/>
<path d="M75.1364 22.2724C75.6495 24.2306 77.1218 25.3741 79.5658 25.3741C82.1774 25.3741 83.1953 24.2746 83.1953 22.6661C83.1953 21.0053 82.3366 20.2535 78.904 19.4179C73.3541 18.0649 72.2525 16.3644 72.2525 13.7779C72.2525 11.0804 74.2191 8.38298 79.2412 8.38298C84.2634 8.38298 86.2655 11.2668 86.4938 13.8847H82.9858C82.7345 12.7643 81.8989 11.137 79.08 11.137C76.6066 11.137 75.8652 12.3119 75.8652 13.4763C75.8652 14.7978 76.6045 15.4492 79.9931 16.2555C85.8383 17.6356 86.9357 19.6064 86.9357 22.4002C86.9357 25.6777 84.3555 28.1804 79.4444 28.1804C74.3824 28.1804 71.9887 25.6484 71.5195 22.2724H75.1364Z" fill="#BC172F"/>
<path d="M88.2891 8.82905H91.4892V3.33778H95.1353V8.82905H99.2171V11.738H95.1353V22.4734C95.1353 24.2326 95.5814 25.1018 97.2632 25.1018C97.786 25.111 98.3083 25.0646 98.8213 24.9636V27.6422C97.971 27.9542 96.794 27.994 95.8621 27.994C92.7751 27.994 91.4892 26.3835 91.4892 23.2106V11.738H88.2891V8.82905Z" fill="#BC172F"/>
<path d="M105.806 8.82906C108.646 17.3906 110.332 22.5656 110.793 24.4526H110.83C111.404 22.3583 112.705 18.0482 115.632 8.82906H119.302L112.6 28.5406C110.688 34.0549 109.251 35.5042 105.249 35.5042C104.543 35.501 103.837 35.4576 103.136 35.3744V32.2643C103.64 32.3273 104.148 32.3595 104.656 32.3607C106.96 32.3607 107.879 31.3805 108.916 28.4338L101.875 8.82906H105.806Z" fill="#BC172F"/>
<path d="M14.4688 10.9003H17.5935C17.6416 11.4072 17.5935 13.2501 17.5935 15.0114C18.5275 12.5695 20.6784 11.0009 23.6669 10.9003V14.0083C19.9663 14.1172 17.5935 16.0502 17.5935 20.6116V27.6799H14.4688C14.4688 27.6799 14.4813 11.8616 14.4688 10.9003Z" fill="#BC172F"/>
<path d="M13.4984 10.9003H10.3821C10.3339 11.4072 10.3821 13.2501 10.3821 15.0114C9.43964 12.5695 7.28669 10.9925 4.30859 10.9003V14.0083C8.00923 14.1172 10.3821 16.0502 10.3821 20.6116V27.6799H13.4984C13.4984 27.6799 13.4858 11.8616 13.4984 10.9003Z" fill="#BC172F"/>
<path d="M27.9628 8.6636V12.0145C26.9806 11.9998 9.50781 12.0145 9.50781 12.0145V8.6636H27.9628Z" fill="#BC172F"/>
<path d="M18.4571 8.6636V12.0145C17.4728 11.9998 0 12.0145 0 12.0145V8.6636H18.4571Z" fill="#BC172F"/>
</svg>
