<svg width="66" height="42" viewBox="0 0 66 42" fill="none" xmlns="http://www.w3.org/2000/svg">
<g clip-path="url(#clip0_87_1680)">
<path d="M63.0422 2.03786V0.942469H63.5973C63.6418 0.942469 63.6903 0.955333 63.7428 0.981061C63.7952 1.0058 63.8398 1.04439 63.8764 1.09683C63.914 1.14829 63.9328 1.2136 63.9328 1.29276C63.9328 1.37291 63.9135 1.44119 63.8749 1.49759C63.8363 1.553 63.7893 1.59506 63.7339 1.62375C63.6794 1.65245 63.628 1.6668 63.5795 1.6668H63.1788V1.48868H63.5053C63.5379 1.48868 63.5731 1.47236 63.6107 1.4397C63.6493 1.40705 63.6686 1.35807 63.6686 1.29276C63.6686 1.22547 63.6493 1.17995 63.6107 1.1562C63.5731 1.13246 63.5399 1.12058 63.5112 1.12058H63.2827V2.03786H63.0422ZM63.7042 1.52134L63.9773 2.03786H63.7131L63.4459 1.52134H63.7042ZM63.4578 2.69095C63.2935 2.69095 63.1397 2.66027 62.9962 2.59892C62.8527 2.53757 62.7265 2.45247 62.6177 2.34363C62.5088 2.23478 62.4238 2.10862 62.3624 1.96514C62.3011 1.82166 62.2704 1.66779 62.2704 1.50353C62.2704 1.33927 62.3011 1.1854 62.3624 1.04192C62.4238 0.898436 62.5088 0.772273 62.6177 0.663426C62.7265 0.554579 62.8527 0.46948 62.9962 0.40813C63.1397 0.34678 63.2935 0.316105 63.4578 0.316105C63.6221 0.316105 63.7759 0.34678 63.9194 0.40813C64.0629 0.46948 64.189 0.554579 64.2979 0.663426C64.4067 0.772273 64.4918 0.898436 64.5532 1.04192C64.6145 1.1854 64.6452 1.33927 64.6452 1.50353C64.6452 1.66779 64.6145 1.82166 64.5532 1.96514C64.4918 2.10862 64.4067 2.23478 64.2979 2.34363C64.189 2.45247 64.0629 2.53757 63.9194 2.59892C63.7759 2.66027 63.6221 2.69095 63.4578 2.69095ZM63.4578 2.40596C63.624 2.40596 63.7754 2.36539 63.912 2.28425C64.0485 2.20311 64.1574 2.09427 64.2385 1.95771C64.3197 1.82116 64.3602 1.66976 64.3602 1.50353C64.3602 1.33729 64.3197 1.18589 64.2385 1.04934C64.1574 0.912784 64.0485 0.803937 63.912 0.722797C63.7754 0.641656 63.624 0.601086 63.4578 0.601086C63.2916 0.601086 63.1402 0.641656 63.0036 0.722797C62.8671 0.803937 62.7582 0.912784 62.6771 1.04934C62.5959 1.18589 62.5554 1.33729 62.5554 1.50353C62.5554 1.66976 62.5959 1.82116 62.6771 1.95771C62.7582 2.09427 62.8671 2.20311 63.0036 2.28425C63.1402 2.36539 63.2916 2.40596 63.4578 2.40596Z" fill="#BC172F"/>
<path d="M31.0195 7.03418H37.5117C37.612 8.09018 37.5117 11.9296 37.5117 15.5988C39.4792 10.5099 43.962 7.22533 50.1791 7.03418V13.5077C42.4677 13.7408 37.5117 17.7644 37.5117 27.2731V42.0012H31.0195C31.0195 42.0012 31.0452 9.03429 31.0195 7.03418Z" fill="#BC172F"/>
<path d="M29.0008 7.03418H22.5086C22.4083 8.09018 22.5086 11.9296 22.5086 15.5988C20.5411 10.5099 16.056 7.22766 9.83887 7.03418V13.5077C17.5526 13.7408 22.5086 17.7644 22.5086 27.2731V42.0012H29.0008C29.0008 42.0012 28.9728 9.03429 29.0008 7.03418Z" fill="#BC172F"/>
<path d="M59.1492 2.37207V9.36547C57.1002 9.33749 20.6855 9.36547 20.6855 9.36547V2.37207H59.1492Z" fill="#BC172F"/>
<path d="M39.3348 2.37207V9.36547C37.2857 9.33749 0.871094 9.36547 0.871094 9.36547V2.37207H39.3348Z" fill="#BC172F"/>
</g>
<defs>
<clipPath id="clip0_87_1680">
<rect width="64.2576" height="42" fill="white" transform="translate(0.871094)"/>
</clipPath>
</defs>
</svg>
