<svg width="24" height="26" viewBox="0 0 24 26" fill="none" xmlns="http://www.w3.org/2000/svg">
<g clip-path="url(#clip0_2242_19021)">
<path d="M17.6511 16.9527C20.6568 15.3023 22.9354 14.0447 23.1318 13.947C23.7601 13.6129 24.4089 12.7285 23.1318 12.0416C22.7194 11.8256 20.4994 10.6072 17.6511 9.03589L13.7025 13.0237L17.6511 16.9526V16.9527Z" fill="#FFD900"/>
<path d="M13.7024 13.0238L1.12964 25.6953C1.42475 25.7344 1.75792 25.6561 2.15073 25.4402C2.97541 24.9888 11.7178 20.2145 17.651 16.9538L13.7024 13.0238Z" fill="#F43249"/>
<path d="M13.7024 13.0237L17.651 9.05556C17.651 9.05556 3.03505 1.07901 2.15073 0.608144C1.81756 0.410816 1.4442 0.352201 1.11011 0.410816L13.7024 13.0237Z" fill="#00EE76"/>
<path d="M13.7024 13.0238L1.11011 0.410889C0.599056 0.529045 0.167175 0.980556 0.167175 1.90395V24.2022C0.167175 25.0473 0.501364 25.6561 1.12965 25.7148L13.7024 13.0238Z" fill="#00D3FF"/>
</g>
<defs>
<clipPath id="clip0_2242_19021">
<rect width="23.7053" height="25.3721" fill="white" transform="translate(0.167175 0.38916)"/>
</clipPath>
</defs>
</svg>
