<svg width="104" height="36" viewBox="0 0 104 36" fill="none" xmlns="http://www.w3.org/2000/svg">
<path d="M0.0375134 13.9636C0.0375134 11.4689 0.016881 9.9459 0 8.82988H3.57503C3.62942 9.33818 3.68382 10.8931 3.68382 12.5812C4.64228 10.0997 6.84995 8.45474 9.99357 8.38159V11.9754C6.13156 12.0504 3.68382 13.8792 3.68382 18.7372V27.7404H0.0375134V13.9636Z" fill="#BC172F"/>
<path d="M14.3789 18.9773C14.3977 22.5411 16.1889 25.1877 19.28 25.1877C22.1142 25.1877 23.0145 23.7753 23.5941 22.438H27.2591C26.5295 24.8388 24.4944 28.1813 19.1675 28.1813C13.1729 28.1813 10.6913 23.3833 10.6913 18.5065C10.6913 12.8158 13.5686 8.37793 19.3794 8.37793C25.5542 8.37793 27.593 13.2322 27.593 17.3999C27.6033 17.9244 27.5852 18.4491 27.5386 18.9717L14.3789 18.9773ZM23.9054 16.4996C23.8698 13.566 22.4368 11.1914 19.3382 11.1914C16.1721 11.1914 14.7972 13.3935 14.4896 16.4996H23.9054Z" fill="#BC172F"/>
<path d="M30.6747 0.5H34.3247V4.694H30.6747V0.5ZM30.6747 8.82985H34.3247V27.7347H30.6747V8.82985Z" fill="#BC172F"/>
<path d="M40.462 22.2729C40.9759 24.2311 42.4464 25.3752 44.8923 25.3752C47.5051 25.3752 48.5217 24.2761 48.5217 22.6686C48.5217 21.0068 47.6645 20.2547 44.2302 19.42C38.6801 18.0658 37.5753 16.3645 37.5753 13.778C37.5753 11.0808 39.541 8.38354 44.5641 8.38354C49.5871 8.38354 51.5941 11.2665 51.8229 13.8868H48.3116C48.0622 12.7614 47.2256 11.1389 44.4065 11.1389C41.9344 11.1389 41.1916 12.3131 41.1916 13.4779C41.1916 14.7908 41.9306 15.4492 45.3181 16.2576C51.1627 17.6381 52.258 19.6 52.258 22.4023C52.258 25.6791 49.679 28.1812 44.7666 28.1812C39.7023 28.1812 37.3127 25.6491 36.8419 22.2729H40.462Z" fill="#BC172F"/>
<path d="M66.9614 10.9023H70.0769C70.1257 11.4088 70.0769 13.2507 70.0769 15.0119C71.0147 12.5736 73.1718 10.9943 76.156 10.9023V14.0047C72.4553 14.1154 70.0769 16.0473 70.0769 20.6108V27.6765H66.9614C66.9614 27.6765 66.9764 11.8627 66.9614 10.9023Z" fill="#BC172F"/>
<path d="M65.9954 10.9023H62.88C62.8312 11.4088 62.88 13.2507 62.88 15.0119C61.9421 12.5736 59.7832 10.9943 56.8009 10.9023V14.0047C60.5016 14.1154 62.88 16.0473 62.88 20.6108V27.6765H65.9954C65.9954 27.6765 65.9823 11.8627 65.9954 10.9023Z" fill="#BC172F"/>
<path d="M80.4662 8.66479V12.0204C79.4834 12.0072 62.0078 12.0204 62.0078 12.0204V8.66479H80.4662Z" fill="#BC172F"/>
<path d="M70.9547 8.66479V12.0204C69.9718 12.0072 52.4962 12.0204 52.4962 12.0204V8.66479H70.9547Z" fill="#BC172F"/>
<path d="M85.4255 8.82983C88.2653 17.3923 89.9496 22.5672 90.4129 24.4542H90.4486C91.0225 22.3572 92.3242 18.0488 95.2503 8.82983H98.9191L92.208 28.5431C90.3079 34.0557 88.8693 35.5 84.8685 35.5C84.162 35.4976 83.4562 35.455 82.7546 35.3724V32.2663C83.2586 32.3289 83.766 32.3608 84.2739 32.362C86.5772 32.362 87.4981 31.3829 88.5354 28.4343L81.4922 8.82983H85.4255Z" fill="#BC172F"/>
<path d="M99.9732 9.34572C99.971 9.00264 100.056 8.66457 100.219 8.36287C100.376 8.06706 100.611 7.81989 100.898 7.64824C101.181 7.47731 101.505 7.38696 101.836 7.38696C102.166 7.38696 102.491 7.47731 102.774 7.64824C103.061 7.82041 103.295 8.06745 103.453 8.36287C103.615 8.66632 103.7 9.00523 103.7 9.34947C103.7 9.69372 103.615 10.0326 103.453 10.3361C103.295 10.6316 103.059 10.8786 102.772 11.0507C102.489 11.2225 102.164 11.3121 101.834 11.3095C101.503 11.3122 101.178 11.2212 100.896 11.047C100.609 10.8743 100.375 10.6274 100.217 10.3323C100.054 10.0292 99.9702 9.68986 99.9732 9.34572ZM100.292 9.34572C100.29 9.6273 100.358 9.90498 100.489 10.1541C100.616 10.4007 100.807 10.6086 101.042 10.7562C101.279 10.9053 101.554 10.9835 101.834 10.9813C102.113 10.9837 102.386 10.9055 102.622 10.7562C102.86 10.6109 103.055 10.4034 103.184 10.156C103.314 9.90586 103.381 9.62831 103.381 9.34666C103.381 9.06501 103.314 8.78746 103.184 8.53731C103.054 8.29087 102.86 8.08416 102.622 7.93897C102.385 7.79158 102.112 7.71419 101.834 7.71577C101.561 7.71461 101.293 7.78859 101.059 7.92959C100.821 8.07221 100.627 8.27716 100.497 8.5223C100.359 8.77479 100.287 9.05807 100.288 9.34572H100.292ZM101.457 9.54642V10.4299H101.061V8.19969H101.798C102.023 8.18751 102.245 8.25381 102.427 8.38726C102.5 8.44913 102.559 8.52718 102.598 8.61533C102.636 8.70349 102.654 8.79938 102.65 8.89556C102.65 8.98882 102.624 9.08032 102.575 9.15937C102.525 9.23842 102.454 9.30175 102.37 9.34197C102.465 9.39218 102.54 9.47367 102.582 9.57268C102.625 9.68906 102.646 9.81256 102.642 9.93656C102.642 10.081 102.642 10.1823 102.642 10.2423C102.646 10.2933 102.658 10.3435 102.678 10.3905V10.4336H102.271C102.239 10.2655 102.228 10.0942 102.237 9.92343C102.246 9.82032 102.215 9.71783 102.151 9.63645C102.07 9.57089 101.966 9.5399 101.862 9.55017L101.457 9.54642ZM101.457 9.19379H101.793C101.909 9.19875 102.024 9.1701 102.125 9.11126C102.165 9.08979 102.198 9.05783 102.221 9.01884C102.244 8.97984 102.256 8.93528 102.256 8.88994C102.261 8.84237 102.255 8.79428 102.239 8.74917C102.224 8.70405 102.198 8.66307 102.164 8.62922C102.063 8.56742 101.945 8.5392 101.826 8.54856H101.451L101.457 9.19379Z" fill="#BC172F"/>
</svg>
