<svg width="121" height="41" viewBox="0 0 121 41" fill="none" xmlns="http://www.w3.org/2000/svg">
<path d="M0.0437085 15.6869C0.0437085 12.7803 0.0196688 11.0057 0 9.70542H4.16542C4.22879 10.2977 4.29217 12.1094 4.29217 14.0763C5.40892 11.185 7.98117 9.26834 11.6439 9.18311V13.3704C7.14415 13.4578 4.29217 15.5886 4.29217 21.2488V31.7389H0.0437085V15.6869Z" fill="white"/>
<path d="M16.7535 21.5287C16.7753 25.681 18.8624 28.7646 22.464 28.7646C25.7661 28.7646 26.8151 27.119 27.4904 25.5608H31.7608C30.9106 28.3581 28.5394 32.2525 22.3328 32.2525C15.3482 32.2525 12.4569 26.6622 12.4569 20.9801C12.4569 14.3495 15.8093 9.17883 22.5798 9.17883C29.7742 9.17883 32.1498 14.8347 32.1498 19.6907C32.1618 20.3019 32.1406 20.9132 32.0864 21.5221L16.7535 21.5287ZM27.8532 18.6417C27.8117 15.2237 26.142 12.457 22.5317 12.457C18.8427 12.457 17.2408 15.0227 16.8824 18.6417H27.8532Z" fill="white"/>
<path d="M35.7404 0H39.9933V4.88661H35.7404V0ZM35.7404 9.70546H39.9933V31.7323H35.7404V9.70546Z" fill="white"/>
<path d="M47.144 25.3684C47.7428 27.6499 49.4561 28.9831 52.3059 28.9831C55.3502 28.9831 56.5347 27.7024 56.5347 25.8295C56.5347 23.8932 55.536 23.0168 51.5345 22.0443C45.0678 20.4665 43.7806 18.4843 43.7806 15.4706C43.7806 12.3279 46.0709 9.1853 51.9235 9.1853C57.776 9.1853 60.1144 12.5443 60.3811 15.5973H56.29C55.9993 14.2861 55.0246 12.3957 51.7399 12.3957C48.8595 12.3957 47.9941 13.7638 47.9941 15.1209C47.9941 16.6507 48.8551 17.4178 52.802 18.3597C59.6118 19.9682 60.8881 22.2541 60.8881 25.5192C60.8881 29.3371 57.8831 32.2524 52.1595 32.2524C46.2589 32.2524 43.4746 29.3021 42.9261 25.3684H47.144Z" fill="white"/>
<path d="M78.0196 12.1204H81.6496C81.7064 12.7104 81.6496 14.8565 81.6496 16.9086C82.7423 14.0676 85.2555 12.2274 88.7325 12.1204V15.7351C84.4207 15.864 81.6496 18.115 81.6496 23.4321V31.6646H78.0196C78.0196 31.6646 78.0371 13.2393 78.0196 12.1204Z" fill="white"/>
<path d="M76.8941 12.1204H73.2641C73.2073 12.7104 73.2641 14.8565 73.2641 16.9086C72.1714 14.0676 69.656 12.2274 66.1812 12.1204V15.7351C70.493 15.864 73.2641 18.115 73.2641 23.4321V31.6646H76.8941C76.8941 31.6646 76.8788 13.2393 76.8941 12.1204Z" fill="white"/>
<path d="M93.7547 9.51318V13.4229C92.6095 13.4076 72.2479 13.4229 72.2479 13.4229V9.51318H93.7547Z" fill="white"/>
<path d="M82.6724 9.51318V13.4229C81.5272 13.4076 61.1656 13.4229 61.1656 13.4229V9.51318H82.6724Z" fill="white"/>
<path d="M99.5329 9.70544C102.842 19.6819 104.804 25.7115 105.344 27.91H105.385C106.054 25.4667 107.571 20.4468 110.98 9.70544H115.255L107.435 32.6742C105.222 39.0972 103.545 40.78 98.8838 40.78C98.0607 40.7772 97.2384 40.7276 96.4209 40.6314V37.0123C97.0081 37.0852 97.5993 37.1224 98.1911 37.1238C100.875 37.1238 101.948 35.983 103.156 32.5475L94.9501 9.70544H99.5329Z" fill="white"/>
<path d="M116.483 10.3064C116.481 9.90667 116.579 9.51276 116.769 9.16124C116.952 8.81658 117.226 8.52859 117.56 8.3286C117.89 8.12944 118.268 8.02417 118.653 8.02417C119.038 8.02417 119.416 8.12944 119.746 8.3286C120.08 8.5292 120.354 8.81704 120.537 9.16124C120.726 9.51481 120.825 9.90969 120.825 10.3108C120.825 10.7119 120.726 11.1067 120.537 11.4603C120.353 11.8046 120.079 12.0924 119.744 12.293C119.415 12.4931 119.036 12.5976 118.651 12.5945C118.265 12.5976 117.886 12.4916 117.558 12.2886C117.224 12.0874 116.951 11.7997 116.767 11.4559C116.577 11.1027 116.48 10.7074 116.483 10.3064ZM116.855 10.3064C116.852 10.6345 116.931 10.958 117.084 11.2483C117.232 11.5356 117.455 11.7778 117.729 11.9498C118.005 12.1236 118.325 12.2146 118.651 12.2121C118.976 12.2149 119.295 12.1238 119.569 11.9498C119.847 11.7805 120.073 11.5388 120.225 11.2505C120.375 10.959 120.454 10.6357 120.454 10.3075C120.454 9.97933 120.375 9.65595 120.225 9.36449C120.073 9.07735 119.846 8.8365 119.569 8.66734C119.294 8.49561 118.975 8.40544 118.651 8.40727C118.333 8.40593 118.021 8.49212 117.748 8.65641C117.471 8.82258 117.244 9.06137 117.093 9.347C116.932 9.64119 116.849 9.97125 116.85 10.3064H116.855ZM118.212 10.5402V11.5696H117.751V8.97111H118.609C118.871 8.95692 119.13 9.03417 119.342 9.18965C119.428 9.26175 119.496 9.35269 119.541 9.4554C119.586 9.55811 119.607 9.66984 119.602 9.7819C119.602 9.89056 119.572 9.99717 119.514 10.0893C119.457 10.1814 119.374 10.2552 119.276 10.302C119.387 10.3605 119.474 10.4555 119.523 10.5708C119.573 10.7064 119.597 10.8503 119.593 10.9948C119.593 11.1631 119.593 11.2811 119.593 11.351C119.597 11.4105 119.611 11.4689 119.634 11.5237V11.574H119.16C119.123 11.3781 119.11 11.1785 119.121 10.9795C119.131 10.8594 119.095 10.74 119.02 10.6451C118.926 10.5688 118.805 10.5327 118.684 10.5446L118.212 10.5402ZM118.212 10.1294H118.603C118.738 10.1352 118.873 10.1018 118.99 10.0332C119.036 10.0082 119.075 9.97097 119.102 9.92554C119.129 9.8801 119.143 9.82818 119.143 9.77535C119.149 9.71993 119.142 9.66389 119.124 9.61133C119.105 9.55877 119.075 9.51102 119.036 9.47157C118.918 9.39958 118.78 9.36669 118.642 9.3776H118.205L118.212 10.1294Z" fill="white"/>
</svg>
