<svg width="18" height="17" viewBox="0 0 18 17" fill="none" xmlns="http://www.w3.org/2000/svg">
<path d="M14.261 12.1808L17.8302 15.7492L16.651 16.9283L13.0827 13.3592C11.755 14.4235 10.1035 15.0024 8.40186 15C4.26186 15 0.901855 11.64 0.901855 7.5C0.901855 3.36 4.26186 0 8.40186 0C12.5419 0 15.9019 3.36 15.9019 7.5C15.9043 9.20167 15.3254 10.8531 14.261 12.1808ZM12.5894 11.5625C13.6469 10.4749 14.2376 9.01702 14.2352 7.5C14.2352 4.27667 11.6244 1.66667 8.40186 1.66667C5.17852 1.66667 2.56852 4.27667 2.56852 7.5C2.56852 10.7225 5.17852 13.3333 8.40186 13.3333C9.91888 13.3357 11.3768 12.7451 12.4644 11.6875L12.5894 11.5625Z" fill="#717171"/>
</svg>
