<svg width="18" height="17" viewBox="0 0 18 17" fill="none" xmlns="http://www.w3.org/2000/svg">
<path d="M13.6521 12.1808L17.2213 15.7492L16.0421 16.9283L12.4738 13.3592C11.1461 14.4235 9.49464 15.0024 7.79297 15C3.65297 15 0.292969 11.64 0.292969 7.5C0.292969 3.36 3.65297 0 7.79297 0C11.933 0 15.293 3.36 15.293 7.5C15.2954 9.20167 14.7165 10.8531 13.6521 12.1808ZM11.9805 11.5625C13.0381 10.4749 13.6287 9.01702 13.6263 7.5C13.6263 4.27667 11.0155 1.66667 7.79297 1.66667C4.56964 1.66667 1.95964 4.27667 1.95964 7.5C1.95964 10.7225 4.56964 13.3333 7.79297 13.3333C9.30999 13.3357 10.7679 12.7451 11.8555 11.6875L11.9805 11.5625Z" fill="#717171"/>
</svg>
