<svg width="18" height="19" viewBox="0 0 18 19" fill="none" xmlns="http://www.w3.org/2000/svg">
<path d="M14.2049 13.452L18 17.2462L16.7462 18.5L12.952 14.7049C11.5402 15.8366 9.78419 16.4522 7.9748 16.4496C3.57271 16.4496 0 12.8769 0 8.4748C0 4.07271 3.57271 0.5 7.9748 0.5C12.3769 0.5 15.9496 4.07271 15.9496 8.4748C15.9522 10.2842 15.3366 12.0402 14.2049 13.452ZM12.4274 12.7945C13.5519 11.638 14.18 10.0879 14.1774 8.4748C14.1774 5.04741 11.4013 2.27218 7.9748 2.27218C4.54741 2.27218 1.77218 5.04741 1.77218 8.4748C1.77218 11.9013 4.54741 14.6774 7.9748 14.6774C9.58786 14.68 11.138 14.0519 12.2945 12.9274L12.4274 12.7945Z" fill="#BC172F"/>
</svg>
