<svg width="21" height="17" viewBox="0 0 21 17" fill="none" xmlns="http://www.w3.org/2000/svg">
<path d="M6.81874 16.6154C14.5019 16.6154 18.7048 10.2493 18.7048 4.73824C18.7048 4.56009 18.7048 4.3794 18.6972 4.20126C19.5154 3.60891 20.2217 2.87555 20.7827 2.03553C20.0184 2.37254 19.2084 2.59466 18.3791 2.69466C19.2526 2.17249 19.9069 1.3509 20.2203 0.3826C19.3996 0.868839 18.5012 1.21018 17.5647 1.39166C16.935 0.721105 16.1019 0.276881 15.1942 0.127799C14.2865 -0.0212829 13.355 0.133098 12.544 0.567027C11.7329 1.00096 11.0876 1.69022 10.708 2.52805C10.3283 3.36588 10.2355 4.30552 10.444 5.20142C8.78309 5.11813 7.15825 4.68666 5.67485 3.93499C4.19144 3.18331 2.88261 2.12822 1.83323 0.838142C1.3005 1.75824 1.13792 2.8466 1.37851 3.88221C1.6191 4.91782 2.24481 5.82305 3.1286 6.41407C2.46633 6.39157 1.81862 6.21374 1.23772 5.89491V5.95217C1.23886 6.91603 1.57276 7.84995 2.18299 8.59604C2.79323 9.34213 3.64235 9.85465 4.58684 10.047C4.22834 10.1457 3.85801 10.1949 3.48616 10.1933C3.22401 10.1941 2.96239 10.1698 2.70487 10.1208C2.97181 10.9505 3.49159 11.6759 4.19142 12.1955C4.89124 12.715 5.73604 13.0027 6.60751 13.0182C5.12707 14.1809 3.29834 14.8116 1.41586 14.8085C1.08416 14.8099 0.752683 14.7908 0.42334 14.7512C2.33396 15.9693 4.55286 16.6161 6.81874 16.6154Z" fill="white"/>
</svg>
