<svg width="8" height="15" viewBox="0 0 8 15" fill="none" xmlns="http://www.w3.org/2000/svg">
<path fill-rule="evenodd" clip-rule="evenodd" d="M7.37629 6.78073C7.56376 6.96826 7.66907 7.22256 7.66907 7.48773C7.66907 7.75289 7.56376 8.0072 7.37629 8.19473L1.71929 13.8517C1.62704 13.9472 1.5167 14.0234 1.39469 14.0758C1.27269 14.1282 1.14147 14.1558 1.00869 14.157C0.87591 14.1581 0.744231 14.1328 0.621335 14.0826C0.498438 14.0323 0.386786 13.958 0.292893 13.8641C0.199 13.7702 0.124747 13.6586 0.0744663 13.5357C0.0241854 13.4128 -0.00111606 13.2811 3.77571e-05 13.1483C0.00119157 13.0155 0.0287779 12.8843 0.0811869 12.7623C0.133596 12.6403 0.209778 12.53 0.305288 12.4377L5.25529 7.48773L0.305288 2.53773C0.12313 2.34913 0.0223355 2.09652 0.0246139 1.83433C0.0268924 1.57213 0.132061 1.32132 0.317469 1.13591C0.502877 0.950503 0.75369 0.845334 1.01589 0.843055C1.27808 0.840777 1.53069 0.941571 1.71929 1.12373L7.37629 6.78073Z" fill="#BC172F"/>
</svg>
